<?xml version="1.0" standalone="no"?><!DOCTYPE svg PUBLIC "-//W3C//DTD SVG 1.1//EN" "http://www.w3.org/Graphics/SVG/1.1/DTD/svg11.dtd"><svg t="1748182896276" class="icon" viewBox="0 0 1024 1024" version="1.1" xmlns="http://www.w3.org/2000/svg" p-id="9136" xmlns:xlink="http://www.w3.org/1999/xlink" width="200" height="200"><path d="M306.048 139.093333L234.666667 74.24V320H128V725.333333h106.666667v224.426667l71.381333-64.853333L469.333333 736.426667V938.666667h85.333334v-202.24l163.285333 148.48 71.381333 64.853333V725.333333H896V320h-106.666667V74.24l-71.381333 64.853333L554.666667 287.573333V85.333333h-85.333334v202.24L306.048 139.093333zM704 320h-58.154667L704 267.093333V320z m-325.845333 0H320V267.093333L378.154667 320z m46.933333 85.333333l-176.469333 160.426667-13.952 12.672V640H213.333333V405.333333h211.754667z m173.824 0H810.666667V640h-21.333334v-61.568l-13.952-12.672-176.469333-160.426667zM320 616.192L469.333333 480.426667v140.672L320 756.906667v-140.672zM554.666667 480.426667l149.333333 135.765333v140.672L554.666667 621.098667V480.426667z" fill="#3F7E90" p-id="9137"></path></svg>