<?xml version="1.0" standalone="no"?><!DOCTYPE svg PUBLIC "-//W3C//DTD SVG 1.1//EN" "http://www.w3.org/Graphics/SVG/1.1/DTD/svg11.dtd"><svg t="1748182792260" class="icon" viewBox="0 0 1024 1024" version="1.1" xmlns="http://www.w3.org/2000/svg" p-id="3613" xmlns:xlink="http://www.w3.org/1999/xlink" width="200" height="200"><path d="M0 0h1024v1024H0z" fill="#FFFFFF" p-id="3614"></path><path d="M892.5952 683.776c-2.4832 4.7872-7.0912 9.8048-13.824 15.0528a1289.216 1289.216 0 0 1-164.7616 108.9792c-2.944 1.5872-3.0208 3.2-0.2048 4.864 14.976 8.9088 29.0304 8.2432 42.1632-1.9968 24.96-19.3024 40.96-30.8992 48-34.816 20.3008-11.1616 40.2944-11.5456 60.0064-1.2032 15.0016 7.8336 29.7984 19.0208 44.4672 33.536 4.608 4.6592 12.2624 8.6016 22.9632 11.8528 6.272 1.8432 10.5472 3.9424 12.8512 6.272 6.3488 6.2976 2.432 12.0064-11.6992 17.1264-7.936 2.9184-17.28 1.0752-24.8832-4.8896l-54.3488-42.7008c-9.728-7.6288-20.736-7.8848-33.024-0.768-10.4448 6.0928-20.4288 12.8512-29.952 20.2752-13.824 10.6752-23.7568 17.3312-29.7728 19.9168-32.8448 14.2592-63.1808 6.5024-91.0336-23.296-11.8272-12.7488-25.8048-19.0208-41.856-18.816-9.856 0.0768-20.9152 4.5568-33.1264 13.44-9.984 7.296-19.968 14.6432-29.8752 22.016-20.5312 15.3088-40.8064 18.8928-60.7744 10.752-12.288-5.0688-28.416-16.5376-48.384-34.4576-11.9808-10.6752-24.6272-14.4896-37.9392-11.4432-5.4528 1.2032-15.6928 7.68-30.72 19.5072a140.8 140.8 0 0 1-48.3072 24.7808c-14.2592 4.1728-28.8256 2.8928-43.6736-3.8912a255.6672 255.6672 0 0 1-67.5072-44.9792c-4.4544-4.0704-10.5728-4.8384-14.976-1.8944L137.1136 836.864c-9.984 6.5792-19.4816 6.7328-28.5184 0.512-10.5728-7.3728-7.6288-14.592 8.832-21.7088 20.608-8.96 40.704-21.7088 60.3136-38.2208a13.4656 13.4656 0 0 0 1.92-18.5088c-24.7296-31.7184-21.248-47.9488 10.368-48.6656l21.6064-0.512c219.5456-16.0512 439.2192-30.72 658.9696-43.9808 21.76-1.3312 29.1072 4.6848 22.016 18.0224z m-53.0944 7.3728c-206.1312 15.6672-411.6992 29.4656-616.7296 41.4208a87.808 87.808 0 0 1-14.7968-0.896c-14.6688-1.7408-17.6384 3.968-8.9344 17.1008a20.992 20.992 0 0 0 9.6 7.8592c25.7536 10.24 47.7184 22.4768 65.9712 36.736 16.128 12.544 27.648 19.7376 34.56 21.6064 15.36 4.0448 29.4912 1.3824 42.3424-7.9616 19.6096-14.336 36.5568-25.344 50.8928-32.9472 13.2096-6.9632 26.5472-8.3712 40.0384-4.1728 15.2576 4.7104 27.7248 12.1088 37.4528 22.1696 29.6448 30.464 59.0592 31.488 88.2432 3.0976 36.6848-35.584 74.0608-37.632 112.1536-6.272 2.2784 1.9456 5.376 2.3808 7.9872 1.1008a851.0976 851.0976 0 0 0 152.96-94.0544c4.7872-3.6608 4.224-5.248-1.7408-4.7872z m-576.768-531.712c29.4656 12.672 65.4336 34.0992 107.8528 64.3072 139.904 99.584 229.3504 233.5232 268.3136 401.8176 3.7632 16.0768-2.1248 21.376-17.664 15.9232a635.008 635.008 0 0 0-109.5936-27.648c-92.5952-14.9248-178.816 1.0752-258.7136 48-5.2736 3.0976-9.984 4.2752-14.2336 3.5584-10.2656-1.6896-11.008-8.5504-2.176-20.5568 61.5168-83.4048 85.3504-172.4672 71.5264-267.1616-9.0624-61.7728-31.5648-127.1296-67.456-196.0448-14.1312-27.2128-6.7584-34.6112 22.1184-22.1952z m223.7952 73.3952a367.8976 367.8976 0 0 1 89.4208 50.048c20.0192 15.2064 45.056 37.7856 75.1616 67.712 71.936 71.7312 126.336 155.4944 163.1744 251.2896 3.84 9.984 5.4528 20.3264 4.7616 31.0784a7.6288 7.6288 0 0 1-11.008 6.2208c-28.928-14.2848-60.16-19.3536-93.7728-15.2064a14.0288 14.0288 0 0 1-15.232-9.9072 895.8976 895.8976 0 0 0-111.872-244.1216c-26.6496-40.832-63.7952-78.5408-111.3856-113.2032-5.632-4.096-9.5488-7.7568-11.776-11.008-6.1696-8.832-3.4048-13.9008 8.32-15.1808 4.352-0.512 9.088 0.256 14.208 2.304zM274.5856 197.376c73.2416 137.2672 77.4656 276.3008 12.6976 417.1264-1.28 2.7904-0.512 3.584 2.2528 2.4576 103.3472-41.5232 208.3328-43.264 314.9312-5.1968 6.9376 2.4832 9.4208 0.1536 7.424-6.9888-39.5264-142.592-119.3216-259.584-239.4112-350.9248a697.0368 697.0368 0 0 0-94.0032-60.3648c-5.632-2.9696-6.912-1.664-3.8912 3.8912z m303.1552 124.288a787.6608 787.6608 0 0 1 138.6752 270.8224c1.28 4.2752 5.5808 7.04 10.112 6.5024 19.0464-2.3296 36.0704-0.384 51.0208 5.8624 7.68 3.1744 10.0352 0.9216 7.0912-6.784-38.8096-100.7616-98.6112-187.264-179.4304-259.5328l-23.296-20.6336c-15.7952-13.9776-17.2032-12.7232-4.1728 3.7632z" fill="#222222" p-id="3615"></path></svg>